<svg width="35" height="35" viewBox="0 0 35 35" fill="none" xmlns="http://www.w3.org/2000/svg">
<path d="M15.343 13.0342C14.6292 13.3746 14.0075 13.8814 13.5301 14.5119C13.0527 15.1425 12.7337 15.8784 12.5997 16.6578C12.4657 17.4372 12.5208 18.2374 12.7602 18.9912C12.9997 19.7449 13.4165 20.4302 13.9758 20.9894C14.535 21.5487 15.2203 21.9655 15.974 22.2049C16.7277 22.4444 17.5279 22.4995 18.3074 22.3655C19.0868 22.2315 19.8227 21.9125 20.4533 21.4351C21.0838 20.9577 21.5906 20.336 21.931 19.6222" stroke="#0086D3" stroke-width="1.7" stroke-linecap="round" stroke-linejoin="round"/>
<path d="M20.994 7.38312C18.7072 6.58775 16.2182 6.59182 13.9341 7.39469C11.6499 8.19755 9.70574 9.75169 8.41953 11.8029C7.13332 13.8542 6.58117 16.2812 6.85338 18.687C7.12559 21.0928 8.20605 23.335 9.91806 25.0471C11.6301 26.7591 13.8723 27.8395 16.2781 28.1117C18.6839 28.384 21.1109 27.8318 23.1622 26.5456C25.2134 25.2594 26.7676 23.3152 27.5704 21.0311C28.3733 18.7469 28.3774 16.2579 27.582 13.9711" stroke="#0086D3" stroke-width="1.7" stroke-linecap="round" stroke-linejoin="round"/>
<path d="M25.349 3.02807C21.8727 1.13579 17.8309 0.559431 13.9642 1.40459C10.0975 2.24974 6.66478 4.45982 4.29494 7.62991C1.9251 10.8 0.776817 14.7178 1.06048 18.6657C1.34414 22.6135 3.04074 26.3269 5.83946 29.1256C8.63818 31.9243 12.3516 33.6209 16.2994 33.9046C20.2472 34.1883 24.1651 33.04 27.3352 30.6701C30.5053 28.3003 32.7153 24.8676 33.5605 21.0009C34.4057 17.1342 33.8293 13.0924 31.937 9.61607" stroke="#0086D3" stroke-width="1.7" stroke-linecap="round" stroke-linejoin="round"/>
<path d="M33.94 1.02515L17.47 17.4951" stroke="#0086D3" stroke-width="1.7" stroke-linecap="round" stroke-linejoin="round"/>
</svg>
